<svg width="436" height="436" viewBox="0 0 436 436" fill="none" xmlns="http://www.w3.org/2000/svg">
    <path d="M436 218.063C436 338.426 338.426 436 218.063 436C97.6999 436 0.126221 338.426 0.126221 218.063C0.126221 97.6998 97.6999 0.126099 218.063 0.126099C338.426 0.126099 436 97.6998 436 218.063Z" fill="#3F3432"/>
    <path d="M318.863 217.677C318.863 273.56 273.561 318.863 217.677 318.863C161.793 318.863 116.49 273.56 116.49 217.677C116.49 161.793 161.793 116.49 217.677 116.49C273.561 116.49 318.863 161.793 318.863 217.677Z" fill="#3F3432"/>
    <path d="M103.842 288.507H331.512V323.922H103.842V288.507Z" fill="#3F3432"/>
    <path d="M323.535 217.957C323.535 201.156 319.533 184.582 311.785 169.682H365.652C355.463 138.662 335.738 111.616 309.288 92.4589C282.809 73.3021 250.994 63 218.328 63C185.663 63 153.848 73.3021 127.397 92.4589C100.947 111.616 81.194 138.662 71.0054 169.682H124.872C116.698 185.462 112.668 203.086 113.15 220.852C113.633 238.618 118.628 255.987 127.624 271.313H72.7366C83.6631 301.141 103.501 326.882 129.526 345.074C155.551 363.265 186.542 373 218.328 373C250.115 373 281.078 363.237 307.131 345.074C333.156 326.882 352.994 301.141 363.92 271.313H309.032C318.568 255.164 323.563 236.745 323.563 217.986L323.535 217.957ZM131.882 169.682C132.903 167.866 133.982 166.05 135.145 164.318V164.035C137.501 160.43 140.083 156.996 142.893 153.761H143.319C144.653 152.228 145.958 150.752 147.434 149.305L147.689 149.05C150.584 146.098 153.649 143.345 156.885 140.791L157.537 140.252C158.985 139.088 160.517 137.981 162.05 136.903L162.504 136.562C164.235 135.399 165.966 134.263 167.754 133.185H168.01C169.628 132.248 171.274 131.34 172.948 130.432L174.112 129.864L178.908 127.594L179.617 127.31C181.434 126.516 183.335 125.778 185.237 125.068L186.315 124.699L191.026 123.223L192.587 122.798C194.29 122.315 196.021 121.889 197.781 121.521H198.434C200.42 121.095 202.549 120.783 204.422 120.499L206.04 120.3C207.572 120.3 209.105 119.931 210.666 119.818H226.644C228.176 119.818 229.737 120.102 231.27 120.3L232.888 120.499C234.903 120.783 237.003 121.123 238.876 121.521H239.529C241.317 121.889 243.048 122.315 244.722 122.798L246.283 123.223C247.844 123.677 249.433 124.16 250.938 124.699L252.044 125.068C253.946 125.778 255.791 126.516 257.664 127.31L258.373 127.594L263.17 129.864L264.333 130.432C266.036 131.34 267.682 132.248 269.271 133.185H269.47C271.286 134.263 273.018 135.427 274.749 136.562L275.203 136.931C276.735 137.953 278.268 139.088 279.687 140.223L280.34 140.763C283.575 143.317 286.669 146.07 289.535 149.021L289.79 149.277C291.181 150.724 292.515 152.2 293.906 153.732L294.104 153.988C296.829 157.223 299.383 160.6 301.71 164.148V164.432C302.874 166.163 303.952 167.979 304.974 169.796C313.687 185.433 318.001 203.143 317.461 221.023C316.922 238.902 311.558 256.328 301.909 271.398C297.453 278.181 292.203 284.396 286.271 289.93C281.929 293.989 277.246 297.678 272.28 300.914L271.258 301.481C269.811 302.418 268.278 303.298 266.746 304.177L266.206 304.518C262.801 306.419 259.281 308.122 255.677 309.598L254.514 310.052L250.398 311.613L248.951 312.095C247.418 312.606 245.858 313.032 244.297 313.458L243.417 313.713C241.515 314.224 239.671 314.65 237.769 315.047L236.492 315.246L232.036 315.984L230.191 316.239L226.076 316.665H210.694L206.579 316.239L204.734 315.984L200.278 315.246L199.001 315.047C197.1 314.678 195.198 314.224 193.354 313.713L192.445 313.458C190.885 313.032 189.352 312.578 187.819 312.095L186.372 311.613L182.257 310.052L181.093 309.598C177.489 308.122 173.97 306.419 170.564 304.518L169.996 304.177C168.521 303.298 166.988 302.446 165.541 301.481L164.831 301.027C159.751 297.763 154.983 294.045 150.556 289.93C144.681 284.368 139.487 278.096 135.117 271.284C125.468 256.214 120.104 238.789 119.564 220.909C119.025 203.029 123.339 185.32 132.052 169.682H131.938H131.882ZM191.395 217.957C191.395 203.086 203.429 191.053 218.3 191.053C233.171 191.053 245.205 203.086 245.205 217.957C245.205 232.829 233.171 244.862 218.3 244.862C203.429 244.862 191.395 232.829 191.395 217.957ZM267.398 275.655L266.405 274.662C266.263 274.52 266.121 274.378 265.979 274.236C282.185 260.585 292.515 240.179 292.515 217.39C292.515 194.6 282.468 174.734 266.632 161.083L267.398 160.317C269.101 158.614 270.236 156.485 270.719 154.101C271.201 151.746 270.946 149.333 270.038 147.12C269.13 144.906 267.569 143.033 265.582 141.671C263.595 140.337 261.268 139.627 258.856 139.627H176.694C174.282 139.627 171.955 140.337 169.968 141.671C167.981 143.005 166.421 144.878 165.512 147.12C164.604 149.333 164.349 151.746 164.831 154.13C165.257 156.315 166.335 158.387 167.896 160.033L169.259 161.424C153.649 175.075 143.745 195.111 143.745 217.418C143.745 239.725 153.933 260.301 169.911 273.952L168.123 275.825C166.477 277.528 165.37 279.657 164.945 281.984C164.519 284.311 164.746 286.695 165.654 288.88C166.562 291.066 168.095 292.939 170.053 294.244C172.011 295.578 174.31 296.288 176.723 296.316H258.884C261.296 296.316 263.595 295.606 265.61 294.273C267.597 292.939 269.158 291.066 270.066 288.823C270.974 286.61 271.23 284.197 270.747 281.842C270.265 279.486 269.13 277.329 267.427 275.655H267.398ZM260.19 270.887L260.246 270.944L259.877 271.313L260.19 270.915V270.887ZM285.42 217.39C285.42 238.278 275.827 256.924 260.871 269.269L238.45 246.877C247.362 240.435 253.18 229.991 253.18 218.184C253.18 206.378 247.418 196.019 238.564 189.577L255.734 172.407L261.694 166.191C276.196 178.537 285.42 196.899 285.42 217.39ZM235.442 243.84L235.385 243.784L233.966 244.663C226.587 249.233 217.477 250.396 209.218 248.126C209.133 248.126 209.076 248.097 208.991 248.069C207.828 247.729 206.692 247.303 205.557 246.849C204.791 246.537 204.053 246.168 203.315 245.77C203.117 245.657 202.918 245.572 202.719 245.458C193.127 240.151 186.599 229.906 186.599 218.156C186.599 203.2 197.185 190.684 211.262 187.675C211.46 187.647 211.631 187.59 211.829 187.562C212.652 187.392 213.504 187.278 214.355 187.165C215.32 187.079 216.257 186.994 217.222 186.994C217.42 186.994 217.591 186.994 217.761 186.994C217.903 186.994 218.045 186.994 218.187 186.994C219.379 186.994 220.599 187.108 221.791 187.278C221.99 187.278 222.217 187.335 222.415 187.363C223.664 187.562 224.913 187.817 226.161 188.158C226.218 188.158 226.247 188.158 226.303 188.186C229.028 188.981 231.667 190.116 234.136 191.677L235.442 192.5C243.587 198.119 248.951 207.513 248.951 218.156C248.951 228.799 243.587 238.193 235.442 243.812V243.84ZM169.429 148.737C170.025 147.29 171.018 146.07 172.324 145.218C173.629 144.338 175.133 143.884 176.694 143.884H258.856C260.417 143.884 261.921 144.338 263.226 145.218C264.532 146.098 265.525 147.29 266.121 148.737C266.717 150.185 266.859 151.746 266.575 153.278C266.32 154.584 265.724 155.804 264.872 156.826H264.844L260.928 160.771L261.013 160.828L252.754 169.484L234.988 187.25C233.739 186.569 232.434 185.944 231.1 185.405C230.759 185.263 230.39 185.15 230.05 185.008C229.227 184.696 228.432 184.44 227.58 184.185C226.843 183.958 226.105 183.787 225.367 183.617C225.026 183.532 224.714 183.475 224.373 183.418C222.16 182.993 219.918 182.68 217.619 182.68C211.716 182.68 205.898 184.185 200.704 186.994L182.087 168.377L177.943 164.148L175.9 162.048L171.018 157.081C169.996 156.003 169.315 154.669 169.06 153.278C168.748 151.746 168.918 150.185 169.514 148.737H169.429ZM150.811 217.39C150.811 197.041 159.921 178.792 174.254 166.447L197.128 189.463C188.188 195.906 182.342 206.378 182.342 218.213C182.342 230.048 188.046 240.264 196.816 246.707L177.063 266.46L174.793 268.815C160.148 256.47 150.811 238.022 150.811 217.418V217.39ZM266.093 287.206C265.497 288.653 264.503 289.874 263.198 290.725C261.892 291.605 260.388 292.059 258.827 292.059H176.694C175.162 292.059 173.658 291.576 172.38 290.697C171.103 289.845 170.11 288.625 169.542 287.206C168.946 285.787 168.776 284.254 169.06 282.722C169.344 281.217 170.053 279.827 171.132 278.72L173.345 276.393L200.364 249.062C202.095 250.027 203.883 250.765 205.728 251.418C206.551 251.73 207.402 251.986 208.253 252.241C208.537 252.326 208.821 252.383 209.105 252.468C211.886 253.178 214.781 253.575 217.761 253.575C223.948 253.575 229.737 251.986 234.817 249.204L258.175 272.561L259.253 273.64C260.672 275.031 262.063 276.364 263.453 277.67L264.39 278.607C265.497 279.713 266.235 281.104 266.547 282.637C266.859 284.169 266.689 285.73 266.093 287.177V287.206ZM247.106 170.761C246.425 171.243 245.687 171.527 244.438 171.64C243.445 171.754 239.5 172.009 233.001 167.554C231.213 166.305 229.397 164.659 225.792 161.31C220.741 156.627 220.23 155.662 217.988 154.868C217.023 154.527 213.305 153.392 209.19 154.924C207.913 155.407 205.33 156.372 203.826 159.068C201.896 162.445 203.173 165.908 203.372 166.418C203.542 166.844 204.365 168.888 206.551 170.477C210.098 173.06 214.525 172.464 216.03 171.64C216.54 171.357 217.704 170.505 218.101 170.023C218.243 169.853 218.414 169.682 218.555 169.484C218.839 169.115 218.868 169.001 219.01 168.944C219.265 168.831 219.634 168.944 219.804 169.143C220.088 169.455 220.202 169.994 220.173 170.42C219.861 174.677 218.016 176.948 218.016 176.948C215.944 179.417 213.192 180.211 211.773 180.609C211.12 180.807 210.552 180.893 210.41 180.921C209.105 181.148 207.714 181.148 205.955 180.921C202.322 180.467 198.036 178.934 192.02 173.4C189.267 170.874 185.521 167.554 180.98 163.439C179.958 162.502 178.681 161.282 177.262 159.919C175.786 158.472 174.594 157.393 173.459 155.662C172.835 154.726 172.466 153.959 172.21 153.051C171.983 152.228 171.699 151.235 172.011 150.071C172.38 148.624 173.374 147.744 173.743 147.46C175.02 146.41 176.439 146.24 177.404 146.098C178.425 145.985 179.192 146.07 179.305 146.098C181.122 146.268 201.925 146.297 250.711 146.098C251.846 146.098 252.981 146.098 254.116 146.07C254.712 146.07 255.564 146.07 256.188 146.07C258.26 146.07 258.231 146.07 258.288 146.07C261.126 146.212 262.716 148.085 262.716 148.085C263.056 148.482 264.475 150.639 264.078 152.597C263.368 155.946 256.784 161.282 255.649 162.474C255.337 162.814 253.293 164.801 252.357 165.737C251.307 166.787 250.54 167.525 249.405 168.632C248.412 169.597 247.674 170.25 247.049 170.789L247.106 170.761ZM188.586 264.842C189.267 264.36 190.005 264.076 191.253 263.962C192.247 263.849 196.192 263.593 202.691 268.049C204.479 269.298 206.295 270.944 209.899 274.293C214.951 278.975 215.462 279.94 217.704 280.735C218.669 281.076 222.387 282.211 226.502 280.678C227.779 280.196 230.362 279.231 231.866 276.535C233.796 273.157 232.519 269.695 232.32 269.184C232.15 268.758 231.327 266.715 229.141 265.126C225.594 262.543 221.166 263.139 219.662 263.962C219.151 264.246 217.988 265.097 217.591 265.58C217.449 265.75 217.278 265.92 217.136 266.119C216.853 266.488 216.824 266.602 216.682 266.658C216.427 266.772 216.058 266.658 215.888 266.46C215.604 266.147 215.49 265.608 215.519 265.183C215.831 260.925 217.676 258.655 217.676 258.655C219.747 256.186 222.5 255.391 223.919 254.994C224.572 254.795 225.14 254.71 225.282 254.682C226.587 254.455 227.978 254.455 229.737 254.682C233.37 255.136 237.656 256.668 243.672 262.203C246.425 264.728 250.171 268.049 254.712 272.164C255.734 273.101 257.011 274.321 258.43 275.683C259.906 277.131 261.098 278.209 262.233 279.94C262.857 280.877 263.226 281.643 263.482 282.551C263.709 283.374 263.993 284.368 263.68 285.531C263.312 286.979 262.318 287.859 261.949 288.142C260.672 289.192 259.253 289.363 258.288 289.505C257.266 289.618 256.5 289.533 256.387 289.505C254.57 289.334 233.767 289.306 184.981 289.505C183.846 289.505 182.711 289.505 181.576 289.533C180.98 289.533 180.128 289.533 179.504 289.533C177.432 289.533 177.461 289.533 177.404 289.533C174.566 289.391 172.976 287.518 172.976 287.518C172.636 287.121 171.217 284.964 171.614 283.005C172.324 279.657 178.908 274.321 180.043 273.129C180.355 272.789 182.399 270.802 183.335 269.865C184.385 268.815 185.152 268.077 186.287 266.971C187.28 266.006 188.018 265.353 188.642 264.814L188.586 264.842Z" fill="url(#paint0_linear_600_6447)"/>
    <path fill-rule="evenodd" clip-rule="evenodd" d="M217.005 249C234.126 249 248.005 235.121 248.005 218C248.005 200.879 234.126 187 217.005 187C199.885 187 186.005 200.879 186.005 218C186.005 235.121 199.885 249 217.005 249ZM217.005 253C236.335 253 252.005 237.33 252.005 218C252.005 198.67 236.335 183 217.005 183C197.675 183 182.005 198.67 182.005 218C182.005 237.33 197.675 253 217.005 253Z" fill="#CEA967"/>
    <path d="M241.005 218.5C241.005 232.031 230.036 243 216.505 243C202.974 243 192.005 232.031 192.005 218.5C192.005 204.969 202.974 194 216.505 194C230.036 194 241.005 204.969 241.005 218.5Z" fill="#CBA664"/>
    <g filter="url(#filter0_d_600_6447)">
        <path d="M356.291 197.304H363.006V237.165H356.291V197.304Z" fill="white"/>
        <path fill-rule="evenodd" clip-rule="evenodd" d="M355.291 196.304H364.006V238.165H355.291V196.304ZM356.291 197.304V237.165H363.006V197.304H356.291Z" fill="white"/>
        <path d="M340.24 197.304H346.955V237.165H340.24V197.304Z" fill="white"/>
        <path fill-rule="evenodd" clip-rule="evenodd" d="M339.24 196.304H347.955V238.165H339.24V196.304ZM340.24 197.304V237.165H346.955V197.304H340.24Z" fill="white"/>
        <path d="M330.903 222.983C330.903 223.448 330.867 224.111 330.796 224.971H308.286C308.68 227.084 309.701 228.767 311.349 230.02C313.032 231.238 315.109 231.847 317.58 231.847C320.732 231.847 323.328 230.808 325.37 228.731L328.969 232.868C327.68 234.408 326.05 235.572 324.08 236.359C322.111 237.147 319.89 237.541 317.419 237.541C314.267 237.541 311.492 236.915 309.092 235.661C306.693 234.408 304.83 232.671 303.505 230.45C302.216 228.194 301.571 225.651 301.571 222.822C301.571 220.028 302.198 217.521 303.452 215.301C304.741 213.044 306.514 211.29 308.77 210.036C311.026 208.783 313.569 208.156 316.398 208.156C319.192 208.156 321.681 208.783 323.866 210.036C326.086 211.254 327.805 212.991 329.023 215.247C330.276 217.467 330.903 220.046 330.903 222.983ZM316.398 213.528C314.249 213.528 312.423 214.173 310.919 215.462C309.45 216.715 308.555 218.399 308.233 220.512H324.51C324.224 218.434 323.346 216.751 321.878 215.462C320.41 214.173 318.583 213.528 316.398 213.528Z" fill="white"/>
        <path fill-rule="evenodd" clip-rule="evenodd" d="M331.716 225.971H309.581C310.039 227.29 310.826 228.363 311.944 229.217C313.425 230.285 315.284 230.847 317.58 230.847C320.488 230.847 322.82 229.899 324.657 228.03L325.414 227.259L330.284 232.855L329.736 233.51C328.334 235.183 326.566 236.442 324.452 237.288C322.346 238.13 319.997 238.541 317.419 238.541C314.133 238.541 311.194 237.887 308.629 236.547C306.074 235.213 304.071 233.35 302.647 230.963L302.642 230.954L302.637 230.946C301.254 228.526 300.571 225.809 300.571 222.822C300.571 219.873 301.235 217.194 302.581 214.809L302.583 214.805C303.963 212.391 305.867 210.505 308.284 209.162C310.703 207.818 313.416 207.156 316.398 207.156C319.343 207.156 322.005 207.817 324.355 209.164C326.74 210.474 328.592 212.347 329.898 214.764C331.245 217.154 331.903 219.904 331.903 222.983C331.903 223.49 331.865 224.185 331.792 225.054L331.716 225.971ZM308.529 225.971C308.432 225.649 308.351 225.315 308.286 224.971H330.796C330.867 224.111 330.903 223.448 330.903 222.983C330.903 220.046 330.276 217.467 329.023 215.247C327.805 212.991 326.086 211.254 323.866 210.036C321.681 208.783 319.192 208.156 316.398 208.156C313.569 208.156 311.026 208.783 308.77 210.036C306.514 211.29 304.741 213.044 303.452 215.301C302.198 217.521 301.571 220.028 301.571 222.822C301.571 225.651 302.216 228.194 303.505 230.45C304.83 232.671 306.693 234.408 309.092 235.661C311.492 236.915 314.267 237.541 317.419 237.541C319.89 237.541 322.111 237.147 324.08 236.359C326.05 235.572 327.68 234.408 328.969 232.868L325.37 228.731C325.133 228.972 324.889 229.199 324.637 229.412C322.718 231.035 320.366 231.847 317.58 231.847C315.109 231.847 313.032 231.238 311.349 230.02C309.97 228.971 309.03 227.621 308.529 225.971ZM311.57 216.221L311.568 216.222C310.571 217.074 309.868 218.159 309.473 219.512H323.285C322.911 218.183 322.22 217.093 321.218 216.213C319.954 215.103 318.371 214.528 316.398 214.528C314.466 214.528 312.877 215.101 311.57 216.221ZM324.319 219.512C323.917 217.888 323.103 216.538 321.878 215.462C320.41 214.173 318.583 213.528 316.398 213.528C314.249 213.528 312.423 214.173 310.919 215.462C309.69 216.511 308.862 217.861 308.436 219.512C308.353 219.834 308.285 220.167 308.233 220.512H324.51C324.463 220.168 324.399 219.834 324.319 219.512Z" fill="white"/>
        <path d="M292.237 199.113L279.774 236.718H272.36L263.066 208.89L253.611 236.718H246.144L233.681 199.113H240.933L250.281 227.692L260.004 199.113H266.451L275.959 227.854L285.576 199.113H292.237Z" fill="white"/>
        <path fill-rule="evenodd" clip-rule="evenodd" d="M293.622 198.113L280.496 237.718H271.64L263.058 212.022L254.328 237.718H245.422L232.296 198.113H241.658L250.299 224.533L259.288 198.113H267.173L275.965 224.686L284.856 198.113H293.622ZM275.959 227.854L266.451 199.113H260.004L250.281 227.692L240.933 199.113H233.681L246.144 236.718H253.611L263.066 208.89L272.36 236.718H279.774L292.237 199.113H285.576L275.959 227.854Z" fill="white"/>
        <path d="M216.662 208.281H223.377V236.968H216.662V208.281ZM220.047 203.554C218.829 203.554 217.808 203.177 216.985 202.425C216.161 201.637 215.749 200.671 215.749 199.524C215.749 198.378 216.161 197.429 216.985 196.677C217.808 195.889 218.829 195.495 220.047 195.495C221.264 195.495 222.285 195.871 223.109 196.624C223.933 197.34 224.344 198.253 224.344 199.363C224.344 200.545 223.933 201.548 223.109 202.372C222.321 203.16 221.3 203.554 220.047 203.554Z" fill="white"/>
        <path fill-rule="evenodd" clip-rule="evenodd" d="M215.662 207.281H224.377V237.968H215.662V207.281ZM216.302 203.156L216.293 203.148C215.271 202.17 214.749 200.942 214.749 199.524C214.749 198.11 215.27 196.893 216.302 195.947C217.324 194.973 218.595 194.495 220.047 194.495C221.485 194.495 222.75 194.946 223.774 195.877C224.814 196.786 225.344 197.973 225.344 199.363C225.344 200.806 224.83 202.064 223.816 203.079C222.816 204.078 221.529 204.554 220.047 204.554C218.604 204.554 217.336 204.1 216.31 203.164L216.302 203.156ZM223.109 196.624C222.285 195.871 221.264 195.495 220.047 195.495C218.829 195.495 217.808 195.889 216.985 196.677C216.161 197.429 215.749 198.378 215.749 199.524C215.749 200.671 216.161 201.637 216.985 202.425C217.808 203.177 218.829 203.554 220.047 203.554C221.3 203.554 222.321 203.16 223.109 202.372C223.933 201.548 224.344 200.545 224.344 199.363C224.344 198.253 223.933 197.34 223.109 196.624ZM216.662 208.281V236.968H223.377V208.281H216.662Z" fill="white"/>
        <path d="M194.433 208.156C198.05 208.156 200.951 209.212 203.136 211.325C205.321 213.438 206.413 216.572 206.413 220.727V237.165H199.698V221.586C199.698 219.079 199.107 217.199 197.925 215.945C196.743 214.656 195.06 214.011 192.875 214.011C190.404 214.011 188.452 214.764 187.02 216.268C185.587 217.736 184.871 219.867 184.871 222.661V237.165H178.156V208.478H184.548V212.185C185.659 210.86 187.055 209.857 188.739 209.177C190.422 208.496 192.32 208.156 194.433 208.156Z" fill="white"/>
        <path fill-rule="evenodd" clip-rule="evenodd" d="M207.413 238.165H198.698V221.586C198.698 219.219 198.139 217.63 197.197 216.631L197.188 216.621C196.24 215.588 194.854 215.011 192.875 215.011C190.621 215.011 188.952 215.689 187.744 216.957L187.735 216.966C186.543 218.188 185.871 220.032 185.871 222.661V238.165H177.156V207.478H185.548V209.847C186.391 209.2 187.33 208.667 188.364 208.249C190.184 207.514 192.212 207.156 194.433 207.156C198.257 207.156 201.425 208.28 203.831 210.607C206.274 212.969 207.413 216.403 207.413 220.727V238.165ZM185.548 211.148C185.193 211.468 184.859 211.814 184.548 212.185V208.478H178.156V237.165H184.871V222.661C184.871 219.867 185.587 217.736 187.02 216.268C188.452 214.764 190.404 214.011 192.875 214.011C195.06 214.011 196.743 214.656 197.925 215.945C199.107 217.199 199.698 219.079 199.698 221.586V237.165H206.413V220.727C206.413 216.572 205.321 213.438 203.136 211.325C200.951 209.212 198.05 208.156 194.433 208.156C192.32 208.156 190.422 208.496 188.739 209.177C187.527 209.666 186.463 210.323 185.548 211.148Z" fill="white"/>
        <path d="M157.055 208.156C160.672 208.156 163.537 209.212 165.65 211.325C167.763 213.403 168.82 216.536 168.82 220.727V237.165H162.105V221.586C162.105 219.079 161.55 217.199 160.439 215.945C159.329 214.656 157.735 214.011 155.658 214.011C153.402 214.011 151.593 214.764 150.232 216.268C148.871 217.736 148.191 219.849 148.191 222.607V237.165H141.476V221.586C141.476 219.079 140.921 217.199 139.811 215.945C138.7 214.656 137.107 214.011 135.029 214.011C132.737 214.011 130.911 214.746 129.55 216.214C128.225 217.682 127.562 219.813 127.562 222.607V237.165H120.847V208.478H127.24V212.131C128.314 210.842 129.657 209.857 131.269 209.177C132.88 208.496 134.671 208.156 136.641 208.156C138.79 208.156 140.688 208.568 142.335 209.391C144.019 210.179 145.344 211.361 146.311 212.937C147.493 211.433 149.015 210.269 150.877 209.445C152.739 208.586 154.799 208.156 157.055 208.156Z" fill="white"/>
        <path fill-rule="evenodd" clip-rule="evenodd" d="M150.232 216.268C148.871 217.736 148.191 219.849 148.191 222.607V237.165H141.476V221.586C141.476 219.079 140.921 217.199 139.811 215.945C138.7 214.656 137.107 214.011 135.029 214.011C132.737 214.011 130.911 214.746 129.55 216.214C128.225 217.682 127.562 219.813 127.562 222.607V237.165H120.847V208.478H127.24V212.131C127.551 211.758 127.884 211.411 128.24 211.089C129.114 210.297 130.123 209.66 131.269 209.177C132.88 208.496 134.671 208.156 136.641 208.156C138.79 208.156 140.688 208.568 142.335 209.391C143.698 210.029 144.825 210.925 145.718 212.078C145.929 212.35 146.126 212.636 146.311 212.937C146.527 212.662 146.754 212.398 146.993 212.146C148.061 211.019 149.355 210.118 150.877 209.445C152.739 208.586 154.799 208.156 157.055 208.156C160.672 208.156 163.537 209.212 165.65 211.325C167.763 213.403 168.82 216.536 168.82 220.727V237.165H162.105V221.586C162.105 219.079 161.55 217.199 160.439 215.945C159.329 214.656 157.735 214.011 155.658 214.011C153.402 214.011 151.593 214.764 150.232 216.268ZM166.355 210.615C164.016 208.278 160.876 207.156 157.055 207.156C154.672 207.156 152.47 207.61 150.465 208.534C148.892 209.231 147.532 210.16 146.397 211.324C145.427 210.116 144.215 209.169 142.771 208.491C140.966 207.591 138.914 207.156 136.641 207.156C134.554 207.156 132.629 207.517 130.88 208.255C129.915 208.663 129.034 209.173 128.24 209.786V207.478H119.847V238.165H128.562V222.607C128.562 219.963 129.189 218.11 130.288 216.889C131.431 215.658 132.974 215.011 135.029 215.011C136.886 215.011 138.174 215.577 139.053 216.598L139.062 216.608C139.946 217.607 140.476 219.205 140.476 221.586V238.165H149.191V222.607C149.191 220.005 149.832 218.171 150.966 216.947L150.974 216.939C152.123 215.669 153.649 215.011 155.658 215.011C157.515 215.011 158.803 215.577 159.682 216.598L159.691 216.608C160.575 217.607 161.105 219.205 161.105 221.586V238.165H169.82V220.727C169.82 216.383 168.724 212.947 166.355 210.615Z" fill="white"/>
        <path d="M91.2583 236.887C87.4262 236.887 83.9701 236.064 80.8901 234.416C77.8101 232.733 75.3926 230.423 73.6377 227.486C71.8828 224.514 71.0054 221.201 71.0054 217.548C71.0054 213.895 71.8828 210.6 73.6377 207.663C75.3926 204.691 77.8101 202.381 80.8901 200.733C83.9701 199.05 87.4262 198.208 91.2583 198.208C95.0904 198.208 98.5464 199.05 101.626 200.733C104.706 202.381 107.124 204.673 108.879 207.609C110.634 210.546 111.511 213.859 111.511 217.548C111.511 221.237 110.634 224.55 108.879 227.486C107.124 230.423 104.706 232.733 101.626 234.416C98.5464 236.064 95.0904 236.887 91.2583 236.887ZM91.2583 230.763C93.7653 230.763 96.0215 230.208 98.0271 229.098C100.033 227.952 101.609 226.376 102.755 224.37C103.901 222.329 104.474 220.055 104.474 217.548C104.474 215.041 103.901 212.785 102.755 210.779C101.609 208.738 100.033 207.162 98.0271 206.052C96.0215 204.905 93.7653 204.332 91.2583 204.332C88.7513 204.332 86.495 204.905 84.4894 206.052C82.4838 207.162 80.908 208.738 79.7619 210.779C78.6159 212.785 78.0428 215.041 78.0428 217.548C78.0428 220.055 78.6159 222.329 79.7619 224.37C80.908 226.376 82.4838 227.952 84.4894 229.098C86.495 230.208 88.7513 230.763 91.2583 230.763Z" fill="white"/>
        <path fill-rule="evenodd" clip-rule="evenodd" d="M80.4105 235.294L80.4105 235.294C77.1782 233.527 74.6282 231.093 72.7793 227.999L72.7766 227.995L72.7766 227.995C70.9254 224.859 70.0054 221.369 70.0054 217.548C70.0054 213.728 70.925 210.254 72.7779 207.152C74.6263 204.023 77.1776 201.586 80.4145 199.853C83.6538 198.084 87.2759 197.208 91.2583 197.208C95.2406 197.208 98.8628 198.084 102.102 199.853C105.337 201.584 107.888 204.002 109.737 207.096C111.592 210.2 112.511 213.693 112.511 217.548C112.511 221.403 111.592 224.895 109.737 227.999C107.888 231.093 105.338 233.527 102.106 235.294L102.098 235.298L102.098 235.298C98.8593 237.031 95.2386 237.887 91.2583 237.887C87.2779 237.887 83.6573 237.031 80.4184 235.298L80.4105 235.294ZM101.626 200.733C98.5464 199.05 95.0904 198.208 91.2583 198.208C87.4262 198.208 83.9701 199.05 80.8901 200.733C77.8101 202.381 75.3926 204.691 73.6377 207.663C71.8828 210.6 71.0054 213.895 71.0054 217.548C71.0054 221.201 71.8828 224.514 73.6377 227.486C75.3926 230.423 77.8101 232.733 80.8901 234.416C83.9701 236.064 87.4262 236.887 91.2583 236.887C95.0904 236.887 98.5464 236.064 101.626 234.416C104.706 232.733 107.124 230.423 108.879 227.486C110.634 224.55 111.511 221.237 111.511 217.548C111.511 213.859 110.634 210.546 108.879 207.609C107.124 204.673 104.706 202.381 101.626 200.733ZM84.4894 206.052C82.4838 207.162 80.908 208.738 79.7619 210.779C78.6159 212.785 78.0428 215.041 78.0428 217.548C78.0428 220.055 78.6159 222.329 79.7619 224.37C80.908 226.376 82.4838 227.952 84.4894 229.098C86.495 230.208 88.7513 230.763 91.2583 230.763C93.7653 230.763 96.0215 230.208 98.0271 229.098C100.033 227.952 101.609 226.376 102.755 224.37C103.901 222.329 104.474 220.055 104.474 217.548C104.474 215.041 103.901 212.785 102.755 210.779C101.609 208.738 100.033 207.162 98.0271 206.052C96.0215 204.905 93.7653 204.332 91.2583 204.332C88.7513 204.332 86.495 204.905 84.4894 206.052ZM84.9796 228.226C86.8219 229.245 88.907 229.763 91.2583 229.763C93.6096 229.763 95.6947 229.245 97.537 228.226C99.3836 227.17 100.828 225.725 101.885 223.878C102.939 221.997 103.474 219.895 103.474 217.548C103.474 215.2 102.939 213.117 101.886 211.275L101.883 211.269L101.883 211.269C100.825 209.385 99.3823 207.945 97.5428 206.926L97.531 206.92L97.531 206.92C95.6893 205.867 93.6065 205.332 91.2583 205.332C88.91 205.332 86.8273 205.867 84.9855 206.92L84.9738 206.926L84.9737 206.926C83.1342 207.945 81.6911 209.385 80.6339 211.269L80.6302 211.275L80.6302 211.275C79.5777 213.117 79.0428 215.2 79.0428 217.548C79.0428 219.895 79.5771 221.997 80.6321 223.878C81.6882 225.725 83.133 227.17 84.9796 228.226Z" fill="white"/>
    </g>
    <defs>
        <filter id="filter0_d_600_6447" x="50.0054" y="183.495" width="334" height="84.046" filterUnits="userSpaceOnUse" color-interpolation-filters="sRGB">
            <feFlood flood-opacity="0" result="BackgroundImageFix"/>
            <feColorMatrix in="SourceAlpha" type="matrix" values="0 0 0 0 0 0 0 0 0 0 0 0 0 0 0 0 0 0 127 0" result="hardAlpha"/>
            <feOffset dy="9"/>
            <feGaussianBlur stdDeviation="10"/>
            <feComposite in2="hardAlpha" operator="out"/>
            <feColorMatrix type="matrix" values="0 0 0 0 0.168069 0 0 0 0 0.145451 0 0 0 0 0.141338 0 0 0 0.94 0"/>
            <feBlend mode="normal" in2="BackgroundImageFix" result="effect1_dropShadow_600_6447"/>
            <feBlend mode="normal" in="SourceGraphic" in2="effect1_dropShadow_600_6447" result="shape"/>
        </filter>
        <linearGradient id="paint0_linear_600_6447" x1="365.623" y1="217.986" x2="71.0054" y2="217.986" gradientUnits="userSpaceOnUse">
            <stop stop-color="#F8D48F"/>
            <stop offset="1" stop-color="#A17B3C"/>
        </linearGradient>
    </defs>
</svg>
