<svg width="295" height="310" viewBox="0 0 295 310" fill="none" xmlns="http://www.w3.org/2000/svg">
<path d="M252.535 154.957C252.535 138.156 248.533 121.582 240.785 106.682H294.652C284.463 75.6624 264.738 48.6158 238.288 29.4589C211.809 10.3021 179.994 0 147.328 0C114.663 0 82.848 10.3021 56.3974 29.4589C29.9468 48.6158 10.194 75.6624 0.00537109 106.682H53.8715C45.6979 122.462 41.6679 140.086 42.1504 157.852C42.6329 175.618 47.6278 192.987 56.6244 208.313H1.73658C12.6631 238.141 32.501 263.882 58.5259 282.074C84.5508 300.265 115.542 310 147.328 310C179.115 310 210.078 300.237 236.131 282.074C262.156 263.882 281.994 238.141 292.92 208.313H238.032C247.568 192.164 252.563 173.745 252.563 154.986L252.535 154.957ZM60.8815 106.682C61.9032 104.866 62.9817 103.05 64.1453 101.318V101.035C66.5008 97.4302 69.0835 93.9961 71.8931 90.7608H72.3188C73.6527 89.2282 74.9582 87.7524 76.434 86.305L76.6894 86.0496C79.5842 83.098 82.6493 80.3451 85.8847 77.7909L86.5375 77.2517C87.9849 76.0881 89.5174 74.9812 91.0499 73.9028L91.504 73.5622C93.2352 72.3986 94.9665 71.2634 96.7544 70.1849H97.0098C98.6275 69.2484 100.274 68.3402 101.948 67.432L103.112 66.8644L107.908 64.594L108.617 64.3102C110.434 63.5155 112.335 62.7776 114.237 62.0681L115.315 61.6992L120.026 60.2234L121.587 59.7977C123.29 59.3152 125.021 58.8895 126.781 58.5206H127.434C129.42 58.0948 131.549 57.7827 133.422 57.4989L135.04 57.3002C136.572 57.3002 138.105 56.9312 139.666 56.8177H155.644C157.176 56.8177 158.737 57.1015 160.27 57.3002L161.888 57.4989C163.903 57.7827 166.003 58.1232 167.876 58.5206H168.529C170.317 58.8895 172.048 59.3152 173.722 59.7977L175.283 60.2234C176.844 60.6775 178.433 61.1599 179.938 61.6992L181.044 62.0681C182.946 62.7776 184.791 63.5155 186.664 64.3102L187.373 64.594L192.17 66.8644L193.333 67.432C195.036 68.3402 196.682 69.2484 198.271 70.1849H198.47C200.286 71.2634 202.018 72.427 203.749 73.5622L204.203 73.9311C205.735 74.9528 207.268 76.0881 208.687 77.2233L209.34 77.7625C212.575 80.3168 215.669 83.0697 218.535 86.0212L218.79 86.2767C220.181 87.7241 221.515 89.1998 222.906 90.7324L223.104 90.9878C225.829 94.2232 228.383 97.6005 230.71 101.148V101.432C231.874 103.163 232.952 104.979 233.974 106.796C242.687 122.433 247.001 140.143 246.461 158.023C245.922 175.902 240.558 193.328 230.909 208.398C226.453 215.181 221.203 221.396 215.271 226.93C210.929 230.989 206.246 234.678 201.28 237.914L200.258 238.481C198.811 239.418 197.278 240.298 195.746 241.177L195.206 241.518C191.801 243.419 188.281 245.122 184.677 246.598L183.514 247.052L179.398 248.613L177.951 249.095C176.418 249.606 174.858 250.032 173.297 250.458L172.417 250.713C170.515 251.224 168.671 251.65 166.769 252.047L165.492 252.246L161.036 252.984L159.191 253.239L155.076 253.665H139.694L135.579 253.239L133.734 252.984L129.278 252.246L128.001 252.047C126.1 251.678 124.198 251.224 122.354 250.713L121.445 250.458C119.885 250.032 118.352 249.578 116.819 249.095L115.372 248.613L111.257 247.052L110.093 246.598C106.489 245.122 102.97 243.419 99.5641 241.518L98.9965 241.177C97.5207 240.298 95.9881 239.446 94.5407 238.481L93.8312 238.027C88.7511 234.763 83.9832 231.045 79.5559 226.93C73.6811 221.368 68.4875 215.096 64.1169 208.284C54.4675 193.214 49.1036 175.789 48.5644 157.909C48.0251 140.029 52.339 122.32 61.0518 106.682H60.9383H60.8815ZM120.395 154.957C120.395 140.086 132.429 128.053 147.3 128.053C162.171 128.053 174.205 140.086 174.205 154.957C174.205 169.829 162.171 181.862 147.3 181.862C132.429 181.862 120.395 169.829 120.395 154.957ZM196.398 212.655L195.405 211.662C195.263 211.52 195.121 211.378 194.979 211.236C211.185 197.585 221.515 177.179 221.515 154.39C221.515 131.6 211.468 111.734 195.632 98.0829L196.398 97.3167C198.101 95.6138 199.236 93.4853 199.719 91.1013C200.201 88.7458 199.946 86.3334 199.038 84.1197C198.13 81.9061 196.569 80.033 194.582 78.6707C192.595 77.3368 190.268 76.6273 187.856 76.6273H105.694C103.282 76.6273 100.955 77.3368 98.9681 78.6707C96.9815 80.0046 95.4205 81.8777 94.5124 84.1197C93.6042 86.3334 93.3488 88.7458 93.8312 91.1297C94.2569 93.315 95.3354 95.3868 96.8963 97.0329L98.2586 98.4235C82.6493 112.075 72.7445 132.111 72.7445 154.418C72.7445 176.725 82.9331 197.301 98.9113 210.952L97.1234 212.825C95.4773 214.528 94.3705 216.657 93.9448 218.984C93.5191 221.311 93.7461 223.695 94.6543 225.88C95.5624 228.066 97.095 229.939 99.0532 231.244C101.011 232.578 103.31 233.288 105.723 233.316H187.884C190.296 233.316 192.595 232.606 194.61 231.273C196.597 229.939 198.158 228.066 199.066 225.823C199.974 223.61 200.23 221.197 199.747 218.842C199.265 216.486 198.13 214.329 196.427 212.655H196.398ZM189.19 207.887L189.246 207.944L188.877 208.313L189.19 207.915V207.887ZM214.42 154.39C214.42 175.278 204.827 193.924 189.871 206.269L167.45 183.877C176.362 177.435 182.18 166.991 182.18 155.184C182.18 143.378 176.418 133.019 167.564 126.577L184.734 109.407L190.694 103.191C205.196 115.537 214.42 133.899 214.42 154.39ZM164.442 180.84L164.385 180.784L162.966 181.663C155.587 186.233 146.477 187.396 138.218 185.126C138.133 185.126 138.076 185.097 137.991 185.069C136.828 184.729 135.692 184.303 134.557 183.849C133.791 183.537 133.053 183.168 132.315 182.77C132.117 182.657 131.918 182.572 131.719 182.458C122.127 177.151 115.599 166.906 115.599 155.156C115.599 140.2 126.185 127.684 140.262 124.675C140.46 124.647 140.631 124.59 140.829 124.562C141.652 124.392 142.504 124.278 143.355 124.165C144.32 124.079 145.257 123.994 146.222 123.994C146.42 123.994 146.591 123.994 146.761 123.994C146.903 123.994 147.045 123.994 147.187 123.994C148.379 123.994 149.599 124.108 150.791 124.278C150.99 124.278 151.217 124.335 151.415 124.363C152.664 124.562 153.913 124.817 155.161 125.158C155.218 125.158 155.247 125.158 155.303 125.186C158.028 125.981 160.667 127.116 163.136 128.677L164.442 129.5C172.587 135.119 177.951 144.513 177.951 155.156C177.951 165.799 172.587 175.193 164.442 180.812V180.84ZM98.4289 85.7374C99.0249 84.29 100.018 83.0697 101.324 82.2182C102.629 81.3385 104.133 80.8844 105.694 80.8844H187.856C189.417 80.8844 190.921 81.3385 192.226 82.2182C193.532 83.098 194.525 84.29 195.121 85.7374C195.717 87.1848 195.859 88.7458 195.575 90.2783C195.32 91.5838 194.724 92.8042 193.872 93.8259H193.844L189.928 97.7708L190.013 97.8275L181.754 106.484L163.988 124.25C162.739 123.569 161.434 122.944 160.1 122.405C159.759 122.263 159.39 122.15 159.05 122.008C158.227 121.696 157.432 121.44 156.58 121.185C155.843 120.958 155.105 120.787 154.367 120.617C154.026 120.532 153.714 120.475 153.373 120.418C151.16 119.993 148.918 119.68 146.619 119.68C140.716 119.68 134.898 121.185 129.704 123.994L111.087 105.377L106.943 101.148L104.9 99.0479L100.018 94.0813C98.9965 93.0028 98.3154 91.6689 98.0599 90.2783C97.7477 88.7458 97.918 87.1848 98.514 85.7374H98.4289ZM79.8113 154.39C79.8113 134.041 88.9214 115.792 103.254 103.447L126.128 126.463C117.188 132.906 111.342 143.378 111.342 155.213C111.342 167.048 117.046 177.264 125.816 183.707L106.063 203.46L103.793 205.815C89.1485 193.47 79.8113 175.022 79.8113 154.418V154.39ZM195.093 224.206C194.497 225.653 193.503 226.874 192.198 227.725C190.892 228.605 189.388 229.059 187.827 229.059H105.694C104.162 229.059 102.658 228.576 101.38 227.697C100.103 226.845 99.11 225.625 98.5424 224.206C97.9464 222.787 97.7761 221.254 98.0599 219.722C98.3437 218.217 99.0532 216.827 100.132 215.72L102.345 213.393L129.364 186.062C131.095 187.027 132.883 187.765 134.728 188.418C135.551 188.73 136.402 188.986 137.253 189.241C137.537 189.326 137.821 189.383 138.105 189.468C140.886 190.178 143.781 190.575 146.761 190.575C152.948 190.575 158.737 188.986 163.817 186.204L187.175 209.561L188.253 210.64C189.672 212.031 191.063 213.364 192.453 214.67L193.39 215.607C194.497 216.713 195.235 218.104 195.547 219.637C195.859 221.169 195.689 222.73 195.093 224.177V224.206ZM176.106 107.761C175.425 108.243 174.687 108.527 173.438 108.64C172.445 108.754 168.5 109.009 162.001 104.554C160.213 103.305 158.397 101.659 154.792 98.31C149.741 93.6272 149.23 92.6623 146.988 91.8676C146.023 91.527 142.305 90.3918 138.19 91.9244C136.913 92.4068 134.33 93.3718 132.826 96.0679C130.896 99.4452 132.173 102.908 132.372 103.418C132.542 103.844 133.365 105.888 135.551 107.477C139.098 110.06 143.525 109.464 145.03 108.64C145.54 108.357 146.704 107.505 147.101 107.023C147.243 106.853 147.414 106.682 147.555 106.484C147.839 106.115 147.868 106.001 148.01 105.944C148.265 105.831 148.634 105.944 148.804 106.143C149.088 106.455 149.202 106.994 149.173 107.42C148.861 111.677 147.016 113.948 147.016 113.948C144.944 116.417 142.192 117.211 140.773 117.609C140.12 117.807 139.552 117.893 139.41 117.921C138.105 118.148 136.714 118.148 134.955 117.921C131.322 117.467 127.036 115.934 121.02 110.4C118.267 107.874 114.521 104.554 109.98 100.439C108.958 99.502 107.681 98.2816 106.262 96.9193C104.786 95.4719 103.594 94.3935 102.459 92.6623C101.835 91.7257 101.466 90.9594 101.21 90.0513C100.983 89.2282 100.699 88.2349 101.011 87.0713C101.38 85.6239 102.374 84.7441 102.743 84.4603C104.02 83.4102 105.439 83.2399 106.404 83.098C107.425 82.9845 108.192 83.0697 108.305 83.098C110.122 83.2683 130.925 83.2967 179.711 83.098C180.846 83.098 181.981 83.098 183.116 83.0697C183.712 83.0697 184.564 83.0697 185.188 83.0697C187.26 83.0697 187.231 83.0697 187.288 83.0697C190.126 83.2116 191.716 85.0847 191.716 85.0847C192.056 85.482 193.475 87.6389 193.078 89.5972C192.368 92.9461 185.784 98.2816 184.649 99.4736C184.337 99.8141 182.293 101.801 181.357 102.737C180.307 103.787 179.54 104.525 178.405 105.632C177.412 106.597 176.674 107.25 176.049 107.789L176.106 107.761ZM117.586 201.842C118.267 201.36 119.005 201.076 120.253 200.962C121.247 200.849 125.192 200.593 131.691 205.049C133.479 206.298 135.295 207.944 138.899 211.293C143.951 215.975 144.462 216.94 146.704 217.735C147.669 218.076 151.387 219.211 155.502 217.678C156.779 217.196 159.362 216.231 160.866 213.535C162.796 210.157 161.519 206.695 161.32 206.184C161.15 205.758 160.327 203.715 158.141 202.126C154.594 199.543 150.166 200.139 148.662 200.962C148.151 201.246 146.988 202.097 146.591 202.58C146.449 202.75 146.278 202.92 146.136 203.119C145.853 203.488 145.824 203.602 145.682 203.658C145.427 203.772 145.058 203.658 144.888 203.46C144.604 203.147 144.49 202.608 144.519 202.183C144.831 197.925 146.676 195.655 146.676 195.655C148.747 193.186 151.5 192.391 152.919 191.994C153.572 191.795 154.14 191.71 154.282 191.682C155.587 191.455 156.978 191.455 158.737 191.682C162.37 192.136 166.656 193.668 172.672 199.203C175.425 201.728 179.171 205.049 183.712 209.164C184.734 210.101 186.011 211.321 187.43 212.683C188.906 214.131 190.098 215.209 191.233 216.94C191.857 217.877 192.226 218.643 192.482 219.551C192.709 220.374 192.993 221.368 192.68 222.531C192.312 223.979 191.318 224.859 190.949 225.142C189.672 226.192 188.253 226.363 187.288 226.505C186.266 226.618 185.5 226.533 185.387 226.505C183.57 226.334 162.767 226.306 113.981 226.505C112.846 226.505 111.711 226.505 110.576 226.533C109.98 226.533 109.128 226.533 108.504 226.533C106.432 226.533 106.461 226.533 106.404 226.533C103.566 226.391 101.976 224.518 101.976 224.518C101.636 224.121 100.217 221.964 100.614 220.005C101.324 216.657 107.908 211.321 109.043 210.129C109.355 209.789 111.399 207.802 112.335 206.865C113.385 205.815 114.152 205.077 115.287 203.971C116.28 203.006 117.018 202.353 117.642 201.814L117.586 201.842Z" fill="url(#paint0_linear_600_6456)"/>
<defs>
<linearGradient id="paint0_linear_600_6456" x1="294.623" y1="154.986" x2="0.00537109" y2="154.986" gradientUnits="userSpaceOnUse">
<stop stop-color="#F8D48F"/>
<stop offset="1" stop-color="#A17B3C"/>
</linearGradient>
</defs>
</svg>
