<svg width="188" height="183" viewBox="0 0 188 183" fill="none" xmlns="http://www.w3.org/2000/svg">
    <path d="M158.443 91.4157C158.454 81.5012 156.074 71.7301 151.504 62.9315H183.275C177.265 44.6259 165.627 28.6859 150.022 17.3851C134.417 6.08429 115.641 -3.05176e-05 96.3742 -3.05176e-05C77.107 -3.05176e-05 58.3318 6.08429 42.7268 17.3851C27.1218 28.6859 15.4839 44.6259 9.47314 62.9315H41.2439C36.4233 72.2445 34.0443 82.6283 34.3295 93.1111C34.6148 103.594 37.5551 113.833 42.8751 122.87H10.4957C16.9434 140.461 28.6375 155.647 43.9966 166.376C59.3557 177.104 77.639 182.858 96.3742 182.858C115.109 182.858 133.393 177.104 148.752 166.376C164.111 155.647 175.805 140.461 182.253 122.87H149.873C155.493 113.341 158.453 102.478 158.443 91.4157ZM45.3827 62.9315C45.9913 61.8603 46.6243 60.7891 47.306 59.7666V59.5962C48.6936 57.4749 50.2227 55.4497 51.8829 53.5342H52.1264C52.9054 52.6334 53.6845 51.757 54.5609 50.9049L54.707 50.7588C56.4119 49.0226 58.2252 47.3963 60.136 45.8897L60.5255 45.5732C61.3776 44.8916 62.2784 44.2342 63.1792 43.6013L63.447 43.4065C64.4695 42.7248 65.492 42.0431 66.5389 41.4102H66.6849C67.6344 40.8502 68.6082 40.3146 69.6064 39.779L70.2881 39.4382L73.1121 38.0992L73.526 37.9288C74.5972 37.4662 75.7171 37.028 76.837 36.6141L77.47 36.395L80.2453 35.5186L81.1705 35.2751C82.1686 34.983 83.1911 34.7395 84.238 34.5204H84.6275C85.7961 34.2769 87.0621 34.0822 88.1576 33.9118L89.1071 33.79C90.0079 33.79 90.9086 33.5709 91.8338 33.4979H92.8806C94.0979 33.4979 95.3152 33.4979 96.5324 33.4979C97.7497 33.4979 98.967 33.4979 100.209 33.4979H101.255C102.156 33.4979 103.081 33.6683 103.982 33.79L104.932 33.9118C106.125 34.0822 107.366 34.2769 108.462 34.5204H108.851C109.898 34.7395 110.921 34.983 111.919 35.2751L112.844 35.5186C113.769 35.7864 114.694 36.0785 115.595 36.395L116.252 36.6141C117.372 37.028 118.468 37.4662 119.563 37.9288L119.977 38.0992L122.801 39.4382L123.483 39.779C124.481 40.3146 125.455 40.8502 126.404 41.4102H126.526C127.597 42.0431 128.62 42.7248 129.642 43.4065L129.91 43.6256C130.811 44.2342 131.712 44.8916 132.564 45.5732L132.953 45.8897C134.864 47.3963 136.677 49.0226 138.382 50.7588L138.528 50.9049C139.356 51.757 140.135 52.6334 140.963 53.5342L141.085 53.6803C142.701 55.5813 144.197 57.5815 145.564 59.6692V59.8397C146.246 60.8622 146.879 61.9334 147.487 63.0046C152.631 72.2258 155.18 82.6685 154.862 93.2225C154.545 103.777 151.374 114.047 145.686 122.943C143.065 126.947 139.966 130.618 136.459 133.874C133.905 136.272 131.143 138.439 128.206 140.35L127.597 140.691C126.745 141.251 125.844 141.762 124.944 142.273L124.627 142.468C122.621 143.593 120.548 144.593 118.419 145.463L117.737 145.73L115.303 146.655L114.451 146.948C113.55 147.24 112.625 147.508 111.7 147.751L111.188 147.897C110.069 148.189 108.973 148.457 107.853 148.676L107.098 148.798L104.469 149.236L103.374 149.382L100.939 149.626H99.8921C98.7479 149.626 97.4576 149.626 96.3864 149.626C95.3152 149.626 93.9518 149.626 92.905 149.626H91.8581L89.4236 149.382L88.328 149.236L85.6987 148.798L84.944 148.676C83.8241 148.457 82.7042 148.189 81.6087 147.897L81.0731 147.751C80.148 147.508 79.2472 147.24 78.3464 146.948L77.4943 146.655L75.0598 145.73L74.3781 145.463C72.2492 144.593 70.1759 143.593 68.17 142.468L67.8292 142.273C66.9527 141.762 66.052 141.251 65.1999 140.691L64.786 140.423C61.7924 138.49 58.9737 136.299 56.3625 133.874C52.8931 130.588 49.8356 126.893 47.2573 122.87C41.5692 113.974 38.398 103.703 38.0808 93.1495C37.7636 82.5955 40.3122 72.1528 45.4557 62.9315H45.3827Z" fill="url(#paint0_linear_576_2956)"/>
    <path d="M68.9255 125.353L67.976 126.327C67.1778 127.154 66.6391 128.197 66.4263 129.327C66.2135 130.457 66.336 131.624 66.7785 132.685C67.2211 133.746 67.9644 134.655 68.9169 135.299C69.8694 135.942 70.9895 136.293 72.1391 136.308H120.611C121.775 136.307 122.913 135.961 123.881 135.314C124.849 134.666 125.603 133.746 126.048 132.671C126.494 131.595 126.611 130.411 126.384 129.269C126.157 128.127 125.597 127.078 124.774 126.254L123.8 125.28C128.871 121.193 132.962 116.023 135.773 110.148C138.583 104.273 140.042 97.8428 140.042 91.3302C140.042 84.8176 138.583 78.3877 135.773 72.5128C132.962 66.6378 128.871 61.4672 123.8 57.3805L124.774 56.431C125.597 55.6071 126.157 54.5578 126.384 53.4157C126.611 52.2736 126.494 51.0899 126.048 50.0141C125.603 48.9383 124.849 48.0186 123.881 47.3711C122.913 46.7237 121.775 46.3775 120.611 46.3763H72.1391C70.9747 46.3775 69.8367 46.7237 68.8689 47.3711C67.9012 48.0186 67.1469 48.9383 66.7015 50.0141C66.256 51.0899 66.1394 52.2736 66.3662 53.4157C66.5931 54.5578 67.1532 55.6071 67.976 56.431L68.9255 57.3805C63.8626 61.4723 59.779 66.6448 56.9737 72.519C54.1684 78.3932 52.7124 84.8205 52.7124 91.3302C52.7124 97.8399 54.1684 104.267 56.9737 110.141C59.779 116.016 63.8626 121.188 68.9255 125.28V125.353ZM94.0987 109.528H93.5144L91.6885 109.163H91.3476C89.8661 108.663 88.4579 107.967 87.1602 107.094C84.4122 105.49 82.1325 103.194 80.5481 100.434C78.9637 97.675 78.13 94.5486 78.13 91.3667C78.13 88.1848 78.9637 85.0584 80.5481 82.2991C82.1325 79.5397 84.4122 77.2436 87.1602 75.6396C88.4916 74.8586 89.9144 74.2453 91.3963 73.8137H91.7372C92.3379 73.649 92.9475 73.5189 93.5631 73.4241H94.0987C94.849 73.319 95.6052 73.2621 96.3628 73.2537C97.1205 73.2601 97.8768 73.3171 98.6269 73.4241H99.1869C99.8025 73.5189 100.412 73.649 101.013 73.8137H101.354C102.871 74.2531 104.328 74.883 105.687 75.6883C108.424 77.2954 110.693 79.5899 112.27 82.3443C113.846 85.0987 114.676 88.2173 114.676 91.3911C114.676 94.5648 113.846 97.6834 112.27 100.438C110.693 103.192 108.424 105.487 105.687 107.094C104.36 107.877 102.936 108.483 101.451 108.895H101.11L99.2843 109.261H98.7243C97.9737 109.36 97.2173 109.408 96.4602 109.407C95.6766 109.5 94.8877 109.541 94.0987 109.528ZM136.265 91.4398C136.264 97.4543 134.899 103.39 132.272 108.801C129.644 114.211 125.824 118.955 121.098 122.675L106.491 108.068C109.344 106.351 111.705 103.926 113.343 101.027C114.982 98.1282 115.844 94.8549 115.844 91.525C115.844 88.195 114.982 84.9217 113.343 82.0231C111.705 79.1244 109.344 76.6989 106.491 74.9822L121.098 60.375C125.797 64.0758 129.601 68.7886 132.227 74.1627C134.853 79.5369 136.233 85.4341 136.265 91.4154V91.4398ZM71.6035 60.1559L86.2108 74.7631C83.3574 76.4798 80.9967 78.9053 79.3578 81.804C77.7189 84.7026 76.8576 87.9759 76.8576 91.3059C76.8576 94.6358 77.7189 97.9091 79.3578 100.808C80.9967 103.706 83.3574 106.132 86.2108 107.849L71.6035 122.456C66.8781 118.733 63.0586 113.987 60.4324 108.574C57.8063 103.162 56.4419 97.2243 56.4419 91.2085C56.4419 85.1926 57.8063 79.2551 60.4324 73.8427C63.0586 68.4304 66.8781 63.6841 71.6035 59.9611V60.1559Z" fill="url(#paint1_linear_576_2956)"/>
    <path d="M96.3624 107.289C105.129 107.289 112.236 100.182 112.236 91.4159C112.236 82.6494 105.129 75.5427 96.3624 75.5427C87.5958 75.5427 80.4891 82.6494 80.4891 91.4159C80.4891 100.182 87.5958 107.289 96.3624 107.289Z" fill="url(#paint2_linear_576_2956)"/>
    <mask id="path-4-outside-1_576_2956" maskUnits="userSpaceOnUse" x="0" y="76.6824" width="188" height="28" fill="black">
        <rect fill="white" y="76.6824" width="188" height="28"/>
        <path d="M6.94114 101.446C5.13976 100.51 3.63177 99.0944 2.5833 97.3559C1.54573 95.5392 1 93.4834 1 91.3913C1 89.2992 1.54573 87.2433 2.5833 85.4266C3.62122 83.6613 5.13018 82.2197 6.94114 81.2636C8.85295 80.2216 10.9962 79.6774 13.1736 79.6811C15.3527 79.6519 17.5042 80.1709 19.4303 81.1905C21.2293 82.1523 22.735 83.5823 23.7882 85.3293C24.8208 87.1564 25.3634 89.2195 25.3634 91.3182C25.3634 93.417 24.8208 95.4801 23.7882 97.3072C22.735 99.0542 21.2293 100.484 19.4303 101.446C17.5042 102.466 15.3527 102.985 13.1736 102.955C11.0025 102.982 8.85962 102.463 6.94114 101.446ZM17.2636 98.2567C18.4514 97.5799 19.4352 96.5961 20.112 95.4083C20.7834 94.1495 21.1345 92.7448 21.1345 91.3182C21.1345 89.8916 20.7834 88.487 20.112 87.2282C19.4352 86.0404 18.4514 85.0566 17.2636 84.3798C16.0122 83.6896 14.6026 83.3372 13.1736 83.3573C11.7527 83.3403 10.3517 83.6926 9.10788 84.3798C7.92009 85.0566 6.93624 86.0404 6.25947 87.2282C5.58812 88.487 5.23696 89.8916 5.23696 91.3182C5.23696 92.7448 5.58812 94.1495 6.25947 95.4083C6.93624 96.5961 7.92009 97.5799 9.10788 98.2567C10.3517 98.9439 11.7527 99.2962 13.1736 99.2792C14.6026 99.2993 16.0122 98.9469 17.2636 98.2567ZM58.8213 87.0578C59.4994 87.8293 60.0166 88.7285 60.3427 89.7026C60.6688 90.6766 60.7971 91.706 60.7202 92.7303V102.639H56.6789V93.2659C56.7663 92.0467 56.412 90.8369 55.6807 89.8575C55.3191 89.4611 54.8735 89.1505 54.3765 88.9483C53.8795 88.7461 53.3436 88.6575 52.8079 88.6889C52.1974 88.6628 51.5887 88.7714 51.0249 89.0071C50.4611 89.2427 49.956 89.5995 49.5457 90.0523C48.6536 91.1182 48.2087 92.4879 48.304 93.8745V102.639H44.2627V93.2659C44.371 92.0446 44.0145 90.8274 43.2645 89.8575C42.904 89.4597 42.4586 89.1482 41.9613 88.9459C41.464 88.7436 40.9276 88.6558 40.3918 88.6889C39.7801 88.6644 39.1702 88.7712 38.6033 89.0022C38.0364 89.2331 37.5255 89.5829 37.1051 90.0279C36.2378 91.1144 35.8119 92.4879 35.9122 93.8745V102.639H31.8709V85.378H35.7174V87.6177C36.3678 86.8313 37.2048 86.2203 38.152 85.8405C39.1676 85.406 40.2609 85.1824 41.3656 85.1832C42.5506 85.1607 43.7251 85.4105 44.7983 85.9135C45.8018 86.3743 46.6482 87.1192 47.2328 88.0559C47.9663 87.1391 48.9099 86.4125 49.9839 85.9379C51.1336 85.4295 52.3786 85.1722 53.6357 85.1832C54.5812 85.1359 55.5266 85.2773 56.4169 85.5992C57.3072 85.921 58.1245 86.4169 58.8213 87.0578ZM83.3371 87.0578C84.0346 87.8143 84.5695 88.7059 84.9087 89.6774C85.2479 90.6489 85.3842 91.6797 85.3091 92.7059V102.615H81.3408V93.2659C81.4285 92.0351 81.0456 90.8169 80.2696 89.8575C79.8816 89.455 79.4104 89.142 78.8891 88.9402C78.3677 88.7384 77.8086 88.6526 77.2508 88.6889C76.5997 88.656 75.9489 88.7604 75.3408 88.9953C74.7326 89.2301 74.1806 89.5903 73.7207 90.0523C72.8005 91.1143 72.3367 92.4967 72.4304 93.8989V102.639H68.316V85.378H72.1626V87.6177C72.8209 86.8339 73.6551 86.2166 74.5971 85.8162C75.7124 85.3758 76.9039 85.1606 78.1028 85.1832C80.0299 85.1002 81.9116 85.7828 83.3371 87.0821V87.0578ZM144.639 79.9976L137.141 102.639H132.466L126.867 85.8892L121.267 102.639H116.788L109.289 79.9976H113.647L119.271 97.1855L125.163 79.9976H129.058L134.706 97.3559L140.5 80.0706L144.639 79.9976ZM164.967 95.2865H151.285C151.493 96.4985 152.166 97.5815 153.16 98.3054C154.242 99.0827 155.553 99.4768 156.885 99.4253C157.771 99.4648 158.655 99.3184 159.481 98.9956C160.307 98.6727 161.056 98.1805 161.681 97.5507L163.823 99.9852C163.042 100.924 162.037 101.653 160.902 102.103C159.618 102.586 158.256 102.826 156.885 102.809C155.145 102.84 153.424 102.447 151.87 101.665C150.481 100.958 149.323 99.8685 148.534 98.5245C147.734 97.1332 147.322 95.5525 147.341 93.9475C147.317 92.3606 147.721 90.7964 148.51 89.4193C149.246 88.0874 150.343 86.9904 151.675 86.2544C153.062 85.5244 154.611 85.1559 156.179 85.1832C157.753 85.1509 159.307 85.5374 160.683 86.3031C161.991 87.0229 163.065 88.1048 163.774 89.4193C164.542 90.8556 164.928 92.4652 164.894 94.0936C164.894 94.3858 164.87 94.7753 164.846 95.2865H164.967ZM152.892 89.5654C151.995 90.3464 151.415 91.429 151.261 92.6085H160.999C160.872 91.4317 160.307 90.3456 159.417 89.5654C158.503 88.7833 157.332 88.3671 156.13 88.3968C154.944 88.3791 153.793 88.7946 152.892 89.5654ZM171.2 78.6586H175.241V102.639H171.2V78.6586ZM182.959 78.6586H187V102.639H182.959V78.6586ZM94.536 81.8235C94.2946 81.6056 94.1025 81.3387 93.9723 81.0406C93.8422 80.7426 93.7771 80.4202 93.7813 80.095C93.7858 79.7712 93.8549 79.4515 93.9845 79.1547C94.1141 78.8579 94.3016 78.5899 94.536 78.3665C94.7839 78.136 95.0752 77.9571 95.3928 77.84C95.7104 77.723 96.0481 77.6703 96.3863 77.6848C97.0565 77.6631 97.7096 77.8982 98.2122 78.3421C98.4505 78.5468 98.6414 78.8009 98.7717 79.0868C98.902 79.3727 98.9686 79.6834 98.9669 79.9976C98.9754 80.332 98.915 80.6645 98.7893 80.9745C98.6637 81.2844 98.4755 81.5652 98.2365 81.7992C97.9969 82.0443 97.7082 82.2361 97.3894 82.3619C97.0705 82.4878 96.7287 82.5449 96.3863 82.5295C96.0466 82.5395 95.7083 82.4822 95.3907 82.3611C95.0732 82.2399 94.7827 82.0572 94.536 81.8235ZM94.3413 85.378H98.3826V102.639H94.3413V85.378Z"/>
    </mask>
    <path d="M6.94114 101.446C5.13976 100.51 3.63177 99.0944 2.5833 97.3559C1.54573 95.5392 1 93.4834 1 91.3913C1 89.2992 1.54573 87.2433 2.5833 85.4266C3.62122 83.6613 5.13018 82.2197 6.94114 81.2636C8.85295 80.2216 10.9962 79.6774 13.1736 79.6811C15.3527 79.6519 17.5042 80.1709 19.4303 81.1905C21.2293 82.1523 22.735 83.5823 23.7882 85.3293C24.8208 87.1564 25.3634 89.2195 25.3634 91.3182C25.3634 93.417 24.8208 95.4801 23.7882 97.3072C22.735 99.0542 21.2293 100.484 19.4303 101.446C17.5042 102.466 15.3527 102.985 13.1736 102.955C11.0025 102.982 8.85962 102.463 6.94114 101.446ZM17.2636 98.2567C18.4514 97.5799 19.4352 96.5961 20.112 95.4083C20.7834 94.1495 21.1345 92.7448 21.1345 91.3182C21.1345 89.8916 20.7834 88.487 20.112 87.2282C19.4352 86.0404 18.4514 85.0566 17.2636 84.3798C16.0122 83.6896 14.6026 83.3372 13.1736 83.3573C11.7527 83.3403 10.3517 83.6926 9.10788 84.3798C7.92009 85.0566 6.93624 86.0404 6.25947 87.2282C5.58812 88.487 5.23696 89.8916 5.23696 91.3182C5.23696 92.7448 5.58812 94.1495 6.25947 95.4083C6.93624 96.5961 7.92009 97.5799 9.10788 98.2567C10.3517 98.9439 11.7527 99.2962 13.1736 99.2792C14.6026 99.2993 16.0122 98.9469 17.2636 98.2567ZM58.8213 87.0578C59.4994 87.8293 60.0166 88.7285 60.3427 89.7026C60.6688 90.6766 60.7971 91.706 60.7202 92.7303V102.639H56.6789V93.2659C56.7663 92.0467 56.412 90.8369 55.6807 89.8575C55.3191 89.4611 54.8735 89.1505 54.3765 88.9483C53.8795 88.7461 53.3436 88.6575 52.8079 88.6889C52.1974 88.6628 51.5887 88.7714 51.0249 89.0071C50.4611 89.2427 49.956 89.5995 49.5457 90.0523C48.6536 91.1182 48.2087 92.4879 48.304 93.8745V102.639H44.2627V93.2659C44.371 92.0446 44.0145 90.8274 43.2645 89.8575C42.904 89.4597 42.4586 89.1482 41.9613 88.9459C41.464 88.7436 40.9276 88.6558 40.3918 88.6889C39.7801 88.6644 39.1702 88.7712 38.6033 89.0022C38.0364 89.2331 37.5255 89.5829 37.1051 90.0279C36.2378 91.1144 35.8119 92.4879 35.9122 93.8745V102.639H31.8709V85.378H35.7174V87.6177C36.3678 86.8313 37.2048 86.2203 38.152 85.8405C39.1676 85.406 40.2609 85.1824 41.3656 85.1832C42.5506 85.1607 43.7251 85.4105 44.7983 85.9135C45.8018 86.3743 46.6482 87.1192 47.2328 88.0559C47.9663 87.1391 48.9099 86.4125 49.9839 85.9379C51.1336 85.4295 52.3786 85.1722 53.6357 85.1832C54.5812 85.1359 55.5266 85.2773 56.4169 85.5992C57.3072 85.921 58.1245 86.4169 58.8213 87.0578ZM83.3371 87.0578C84.0346 87.8143 84.5695 88.7059 84.9087 89.6774C85.2479 90.6489 85.3842 91.6797 85.3091 92.7059V102.615H81.3408V93.2659C81.4285 92.0351 81.0456 90.8169 80.2696 89.8575C79.8816 89.455 79.4104 89.142 78.8891 88.9402C78.3677 88.7384 77.8086 88.6526 77.2508 88.6889C76.5997 88.656 75.9489 88.7604 75.3408 88.9953C74.7326 89.2301 74.1806 89.5903 73.7207 90.0523C72.8005 91.1143 72.3367 92.4967 72.4304 93.8989V102.639H68.316V85.378H72.1626V87.6177C72.8209 86.8339 73.6551 86.2166 74.5971 85.8162C75.7124 85.3758 76.9039 85.1606 78.1028 85.1832C80.0299 85.1002 81.9116 85.7828 83.3371 87.0821V87.0578ZM144.639 79.9976L137.141 102.639H132.466L126.867 85.8892L121.267 102.639H116.788L109.289 79.9976H113.647L119.271 97.1855L125.163 79.9976H129.058L134.706 97.3559L140.5 80.0706L144.639 79.9976ZM164.967 95.2865H151.285C151.493 96.4985 152.166 97.5815 153.16 98.3054C154.242 99.0827 155.553 99.4768 156.885 99.4253C157.771 99.4648 158.655 99.3184 159.481 98.9956C160.307 98.6727 161.056 98.1805 161.681 97.5507L163.823 99.9852C163.042 100.924 162.037 101.653 160.902 102.103C159.618 102.586 158.256 102.826 156.885 102.809C155.145 102.84 153.424 102.447 151.87 101.665C150.481 100.958 149.323 99.8685 148.534 98.5245C147.734 97.1332 147.322 95.5525 147.341 93.9475C147.317 92.3606 147.721 90.7964 148.51 89.4193C149.246 88.0874 150.343 86.9904 151.675 86.2544C153.062 85.5244 154.611 85.1559 156.179 85.1832C157.753 85.1509 159.307 85.5374 160.683 86.3031C161.991 87.0229 163.065 88.1048 163.774 89.4193C164.542 90.8556 164.928 92.4652 164.894 94.0936C164.894 94.3858 164.87 94.7753 164.846 95.2865H164.967ZM152.892 89.5654C151.995 90.3464 151.415 91.429 151.261 92.6085H160.999C160.872 91.4317 160.307 90.3456 159.417 89.5654C158.503 88.7833 157.332 88.3671 156.13 88.3968C154.944 88.3791 153.793 88.7946 152.892 89.5654ZM171.2 78.6586H175.241V102.639H171.2V78.6586ZM182.959 78.6586H187V102.639H182.959V78.6586ZM94.536 81.8235C94.2946 81.6056 94.1025 81.3387 93.9723 81.0406C93.8422 80.7426 93.7771 80.4202 93.7813 80.095C93.7858 79.7712 93.8549 79.4515 93.9845 79.1547C94.1141 78.8579 94.3016 78.5899 94.536 78.3665C94.7839 78.136 95.0752 77.9571 95.3928 77.84C95.7104 77.723 96.0481 77.6703 96.3863 77.6848C97.0565 77.6631 97.7096 77.8982 98.2122 78.3421C98.4505 78.5468 98.6414 78.8009 98.7717 79.0868C98.902 79.3727 98.9686 79.6834 98.9669 79.9976C98.9754 80.332 98.915 80.6645 98.7893 80.9745C98.6637 81.2844 98.4755 81.5652 98.2365 81.7992C97.9969 82.0443 97.7082 82.2361 97.3894 82.3619C97.0705 82.4878 96.7287 82.5449 96.3863 82.5295C96.0466 82.5395 95.7083 82.4822 95.3907 82.3611C95.0732 82.2399 94.7827 82.0572 94.536 81.8235ZM94.3413 85.378H98.3826V102.639H94.3413V85.378Z" fill="white"/>
    <path d="M6.94114 101.446C5.13976 100.51 3.63177 99.0944 2.5833 97.3559C1.54573 95.5392 1 93.4834 1 91.3913C1 89.2992 1.54573 87.2433 2.5833 85.4266C3.62122 83.6613 5.13018 82.2197 6.94114 81.2636C8.85295 80.2216 10.9962 79.6774 13.1736 79.6811C15.3527 79.6519 17.5042 80.1709 19.4303 81.1905C21.2293 82.1523 22.735 83.5823 23.7882 85.3293C24.8208 87.1564 25.3634 89.2195 25.3634 91.3182C25.3634 93.417 24.8208 95.4801 23.7882 97.3072C22.735 99.0542 21.2293 100.484 19.4303 101.446C17.5042 102.466 15.3527 102.985 13.1736 102.955C11.0025 102.982 8.85962 102.463 6.94114 101.446ZM17.2636 98.2567C18.4514 97.5799 19.4352 96.5961 20.112 95.4083C20.7834 94.1495 21.1345 92.7448 21.1345 91.3182C21.1345 89.8916 20.7834 88.487 20.112 87.2282C19.4352 86.0404 18.4514 85.0566 17.2636 84.3798C16.0122 83.6896 14.6026 83.3372 13.1736 83.3573C11.7527 83.3403 10.3517 83.6926 9.10788 84.3798C7.92009 85.0566 6.93624 86.0404 6.25947 87.2282C5.58812 88.487 5.23696 89.8916 5.23696 91.3182C5.23696 92.7448 5.58812 94.1495 6.25947 95.4083C6.93624 96.5961 7.92009 97.5799 9.10788 98.2567C10.3517 98.9439 11.7527 99.2962 13.1736 99.2792C14.6026 99.2993 16.0122 98.9469 17.2636 98.2567ZM58.8213 87.0578C59.4994 87.8293 60.0166 88.7285 60.3427 89.7026C60.6688 90.6766 60.7971 91.706 60.7202 92.7303V102.639H56.6789V93.2659C56.7663 92.0467 56.412 90.8369 55.6807 89.8575C55.3191 89.4611 54.8735 89.1505 54.3765 88.9483C53.8795 88.7461 53.3436 88.6575 52.8079 88.6889C52.1974 88.6628 51.5887 88.7714 51.0249 89.0071C50.4611 89.2427 49.956 89.5995 49.5457 90.0523C48.6536 91.1182 48.2087 92.4879 48.304 93.8745V102.639H44.2627V93.2659C44.371 92.0446 44.0145 90.8274 43.2645 89.8575C42.904 89.4597 42.4586 89.1482 41.9613 88.9459C41.464 88.7436 40.9276 88.6558 40.3918 88.6889C39.7801 88.6644 39.1702 88.7712 38.6033 89.0022C38.0364 89.2331 37.5255 89.5829 37.1051 90.0279C36.2378 91.1144 35.8119 92.4879 35.9122 93.8745V102.639H31.8709V85.378H35.7174V87.6177C36.3678 86.8313 37.2048 86.2203 38.152 85.8405C39.1676 85.406 40.2609 85.1824 41.3656 85.1832C42.5506 85.1607 43.7251 85.4105 44.7983 85.9135C45.8018 86.3743 46.6482 87.1192 47.2328 88.0559C47.9663 87.1391 48.9099 86.4125 49.9839 85.9379C51.1336 85.4295 52.3786 85.1722 53.6357 85.1832C54.5812 85.1359 55.5266 85.2773 56.4169 85.5992C57.3072 85.921 58.1245 86.4169 58.8213 87.0578ZM83.3371 87.0578C84.0346 87.8143 84.5695 88.7059 84.9087 89.6774C85.2479 90.6489 85.3842 91.6797 85.3091 92.7059V102.615H81.3408V93.2659C81.4285 92.0351 81.0456 90.8169 80.2696 89.8575C79.8816 89.455 79.4104 89.142 78.8891 88.9402C78.3677 88.7384 77.8086 88.6526 77.2508 88.6889C76.5997 88.656 75.9489 88.7604 75.3408 88.9953C74.7326 89.2301 74.1806 89.5903 73.7207 90.0523C72.8005 91.1143 72.3367 92.4967 72.4304 93.8989V102.639H68.316V85.378H72.1626V87.6177C72.8209 86.8339 73.6551 86.2166 74.5971 85.8162C75.7124 85.3758 76.9039 85.1606 78.1028 85.1832C80.0299 85.1002 81.9116 85.7828 83.3371 87.0821V87.0578ZM144.639 79.9976L137.141 102.639H132.466L126.867 85.8892L121.267 102.639H116.788L109.289 79.9976H113.647L119.271 97.1855L125.163 79.9976H129.058L134.706 97.3559L140.5 80.0706L144.639 79.9976ZM164.967 95.2865H151.285C151.493 96.4985 152.166 97.5815 153.16 98.3054C154.242 99.0827 155.553 99.4768 156.885 99.4253C157.771 99.4648 158.655 99.3184 159.481 98.9956C160.307 98.6727 161.056 98.1805 161.681 97.5507L163.823 99.9852C163.042 100.924 162.037 101.653 160.902 102.103C159.618 102.586 158.256 102.826 156.885 102.809C155.145 102.84 153.424 102.447 151.87 101.665C150.481 100.958 149.323 99.8685 148.534 98.5245C147.734 97.1332 147.322 95.5525 147.341 93.9475C147.317 92.3606 147.721 90.7964 148.51 89.4193C149.246 88.0874 150.343 86.9904 151.675 86.2544C153.062 85.5244 154.611 85.1559 156.179 85.1832C157.753 85.1509 159.307 85.5374 160.683 86.3031C161.991 87.0229 163.065 88.1048 163.774 89.4193C164.542 90.8556 164.928 92.4652 164.894 94.0936C164.894 94.3858 164.87 94.7753 164.846 95.2865H164.967ZM152.892 89.5654C151.995 90.3464 151.415 91.429 151.261 92.6085H160.999C160.872 91.4317 160.307 90.3456 159.417 89.5654C158.503 88.7833 157.332 88.3671 156.13 88.3968C154.944 88.3791 153.793 88.7946 152.892 89.5654ZM171.2 78.6586H175.241V102.639H171.2V78.6586ZM182.959 78.6586H187V102.639H182.959V78.6586ZM94.536 81.8235C94.2946 81.6056 94.1025 81.3387 93.9723 81.0406C93.8422 80.7426 93.7771 80.4202 93.7813 80.095C93.7858 79.7712 93.8549 79.4515 93.9845 79.1547C94.1141 78.8579 94.3016 78.5899 94.536 78.3665C94.7839 78.136 95.0752 77.9571 95.3928 77.84C95.7104 77.723 96.0481 77.6703 96.3863 77.6848C97.0565 77.6631 97.7096 77.8982 98.2122 78.3421C98.4505 78.5468 98.6414 78.8009 98.7717 79.0868C98.902 79.3727 98.9686 79.6834 98.9669 79.9976C98.9754 80.332 98.915 80.6645 98.7893 80.9745C98.6637 81.2844 98.4755 81.5652 98.2365 81.7992C97.9969 82.0443 97.7082 82.2361 97.3894 82.3619C97.0705 82.4878 96.7287 82.5449 96.3863 82.5295C96.0466 82.5395 95.7083 82.4822 95.3907 82.3611C95.0732 82.2399 94.7827 82.0572 94.536 81.8235ZM94.3413 85.378H98.3826V102.639H94.3413V85.378Z" stroke="white" stroke-width="2" mask="url(#path-4-outside-1_576_2956)"/>
    <path d="M6.94114 101.446C5.13976 100.51 3.63177 99.0944 2.5833 97.3559C1.54573 95.5392 1 93.4834 1 91.3913C1 89.2992 1.54573 87.2433 2.5833 85.4266C3.62122 83.6613 5.13018 82.2197 6.94114 81.2636C8.85295 80.2216 10.9962 79.6774 13.1736 79.6811C15.3527 79.6519 17.5042 80.1709 19.4303 81.1905C21.2293 82.1523 22.735 83.5823 23.7882 85.3293C24.8208 87.1564 25.3634 89.2195 25.3634 91.3182C25.3634 93.417 24.8208 95.4801 23.7882 97.3072C22.735 99.0542 21.2293 100.484 19.4303 101.446C17.5042 102.466 15.3527 102.985 13.1736 102.955C11.0025 102.982 8.85962 102.463 6.94114 101.446ZM17.2636 98.2567C18.4514 97.5799 19.4352 96.5961 20.112 95.4083C20.7834 94.1495 21.1345 92.7448 21.1345 91.3182C21.1345 89.8916 20.7834 88.487 20.112 87.2282C19.4352 86.0404 18.4514 85.0566 17.2636 84.3798C16.0122 83.6896 14.6026 83.3372 13.1736 83.3573C11.7527 83.3403 10.3517 83.6926 9.10788 84.3798C7.92009 85.0566 6.93624 86.0404 6.25947 87.2282C5.58812 88.487 5.23696 89.8916 5.23696 91.3182C5.23696 92.7448 5.58812 94.1495 6.25947 95.4083C6.93624 96.5961 7.92009 97.5799 9.10788 98.2567C10.3517 98.9439 11.7527 99.2962 13.1736 99.2792C14.6026 99.2993 16.0122 98.9469 17.2636 98.2567ZM58.8213 87.0578C59.4994 87.8293 60.0166 88.7285 60.3427 89.7026C60.6688 90.6766 60.7971 91.706 60.7202 92.7303V102.639H56.6789V93.2659C56.7663 92.0467 56.412 90.8369 55.6807 89.8575C55.3191 89.4611 54.8735 89.1505 54.3765 88.9483C53.8795 88.7461 53.3436 88.6575 52.8079 88.6889C52.1974 88.6628 51.5887 88.7714 51.0249 89.0071C50.4611 89.2427 49.956 89.5995 49.5457 90.0523C48.6536 91.1182 48.2087 92.4879 48.304 93.8745V102.639H44.2627V93.2659C44.371 92.0446 44.0145 90.8274 43.2645 89.8575C42.904 89.4597 42.4586 89.1482 41.9613 88.9459C41.464 88.7436 40.9276 88.6558 40.3918 88.6889C39.7801 88.6644 39.1702 88.7712 38.6033 89.0022C38.0364 89.2331 37.5255 89.5829 37.1051 90.0279C36.2378 91.1144 35.8119 92.4879 35.9122 93.8745V102.639H31.8709V85.378H35.7174V87.6177C36.3678 86.8313 37.2048 86.2203 38.152 85.8405C39.1676 85.406 40.2609 85.1824 41.3656 85.1832C42.5506 85.1607 43.7251 85.4105 44.7983 85.9135C45.8018 86.3743 46.6482 87.1192 47.2328 88.0559C47.9663 87.1391 48.9099 86.4125 49.9839 85.9379C51.1336 85.4295 52.3786 85.1722 53.6357 85.1832C54.5812 85.1359 55.5266 85.2773 56.4169 85.5992C57.3072 85.921 58.1245 86.4169 58.8213 87.0578ZM83.3371 87.0578C84.0346 87.8143 84.5695 88.7059 84.9087 89.6774C85.2479 90.6489 85.3842 91.6797 85.3091 92.7059V102.615H81.3408V93.2659C81.4285 92.0351 81.0456 90.8169 80.2696 89.8575C79.8816 89.455 79.4104 89.142 78.8891 88.9402C78.3677 88.7384 77.8086 88.6526 77.2508 88.6889C76.5997 88.656 75.9489 88.7604 75.3408 88.9953C74.7326 89.2301 74.1806 89.5903 73.7207 90.0523C72.8005 91.1143 72.3367 92.4967 72.4304 93.8989V102.639H68.316V85.378H72.1626V87.6177C72.8209 86.8339 73.6551 86.2166 74.5971 85.8162C75.7124 85.3758 76.9039 85.1606 78.1028 85.1832C80.0299 85.1002 81.9116 85.7828 83.3371 87.0821V87.0578ZM144.639 79.9976L137.141 102.639H132.466L126.867 85.8892L121.267 102.639H116.788L109.289 79.9976H113.647L119.271 97.1855L125.163 79.9976H129.058L134.706 97.3559L140.5 80.0706L144.639 79.9976ZM164.967 95.2865H151.285C151.493 96.4985 152.166 97.5815 153.16 98.3054C154.242 99.0827 155.553 99.4768 156.885 99.4253C157.771 99.4648 158.655 99.3184 159.481 98.9956C160.307 98.6727 161.056 98.1805 161.681 97.5507L163.823 99.9852C163.042 100.924 162.037 101.653 160.902 102.103C159.618 102.586 158.256 102.826 156.885 102.809C155.145 102.84 153.424 102.447 151.87 101.665C150.481 100.958 149.323 99.8685 148.534 98.5245C147.734 97.1332 147.322 95.5525 147.341 93.9475C147.317 92.3606 147.721 90.7964 148.51 89.4193C149.246 88.0874 150.343 86.9904 151.675 86.2544C153.062 85.5244 154.611 85.1559 156.179 85.1832C157.753 85.1509 159.307 85.5374 160.683 86.3031C161.991 87.0229 163.065 88.1048 163.774 89.4193C164.542 90.8556 164.928 92.4652 164.894 94.0936C164.894 94.3858 164.87 94.7753 164.846 95.2865H164.967ZM152.892 89.5654C151.995 90.3464 151.415 91.429 151.261 92.6085H160.999C160.872 91.4317 160.307 90.3456 159.417 89.5654C158.503 88.7833 157.332 88.3671 156.13 88.3968C154.944 88.3791 153.793 88.7946 152.892 89.5654ZM171.2 78.6586H175.241V102.639H171.2V78.6586ZM182.959 78.6586H187V102.639H182.959V78.6586ZM94.536 81.8235C94.2946 81.6056 94.1025 81.3387 93.9723 81.0406C93.8422 80.7426 93.7771 80.4202 93.7813 80.095C93.7858 79.7712 93.8549 79.4515 93.9845 79.1547C94.1141 78.8579 94.3016 78.5899 94.536 78.3665C94.7839 78.136 95.0752 77.9571 95.3928 77.84C95.7104 77.723 96.0481 77.6703 96.3863 77.6848C97.0565 77.6631 97.7096 77.8982 98.2122 78.3421C98.4505 78.5468 98.6414 78.8009 98.7717 79.0868C98.902 79.3727 98.9686 79.6834 98.9669 79.9976C98.9754 80.332 98.915 80.6645 98.7893 80.9745C98.6637 81.2844 98.4755 81.5652 98.2365 81.7992C97.9969 82.0443 97.7082 82.2361 97.3894 82.3619C97.0705 82.4878 96.7287 82.5449 96.3863 82.5295C96.0466 82.5395 95.7083 82.4822 95.3907 82.3611C95.0732 82.2399 94.7827 82.0572 94.536 81.8235ZM94.3413 85.378H98.3826V102.639H94.3413V85.378Z" stroke="#3F3432" stroke-width="2" mask="url(#path-4-outside-1_576_2956)"/>
    <defs>
        <linearGradient id="paint0_linear_576_2956" x1="9.47314" y1="91.4157" x2="183.275" y2="91.4157" gradientUnits="userSpaceOnUse">
            <stop stop-color="#F8D48F"/>
            <stop offset="1" stop-color="#A17B3C"/>
        </linearGradient>
        <linearGradient id="paint1_linear_576_2956" x1="52.7114" y1="91.4154" x2="140.039" y2="91.4154" gradientUnits="userSpaceOnUse">
            <stop stop-color="#F8D48F"/>
            <stop offset="1" stop-color="#A17B3C"/>
        </linearGradient>
        <linearGradient id="paint2_linear_576_2956" x1="80.5135" y1="91.416" x2="112.236" y2="91.416" gradientUnits="userSpaceOnUse">
            <stop stop-color="#F8D48F"/>
            <stop offset="1" stop-color="#A17B3C"/>
        </linearGradient>
    </defs>
</svg>
